<svg width="17" height="16" viewBox="0 0 17 16" fill="none" xmlns="http://www.w3.org/2000/svg">
<path d="M14.7215 0.225777L14.7216 0.225746C15.6878 -0.124355 16.6243 0.812001 16.275 1.77837L11.4745 15.0494C11.1235 16.0183 9.80054 16.1361 9.28474 15.2444L9.28469 15.2443L6.88905 11.1078L10.5903 7.40652L10.5904 7.40654L10.5922 7.40466C10.785 7.205 10.8917 6.93757 10.8893 6.65999C10.8869 6.38241 10.7756 6.11689 10.5793 5.9206C10.383 5.72432 10.1175 5.61298 9.83988 5.61056C9.5623 5.60815 9.29488 5.71486 9.09521 5.90771L9.09519 5.90769L9.09335 5.90953L5.39205 9.61083L1.25561 7.2161C0.363506 6.69928 0.480914 5.37633 1.45042 5.02536C1.45043 5.02536 1.45044 5.02536 1.45046 5.02535L14.7215 0.225777Z" fill="#D0EEFF" stroke="black" stroke-width="0.3"/>
</svg>
